# xmcd
#
# Track frame offsets: 
#        150
#        15108
#        39965
#        55189
#        76512
#        99678
#        116729
#        140156
#        168576
#        184116
#        207585
#        226542
#        247493
#        258402
#        277426
#        297667
#        320128
#
# Disc length: 4635 seconds
#
# Revision: 2
# Processed by: cddbd v1.5.2PL0 Copyright (c) Steve Scherf et al.
# Submitted via: ExactAudioCopyFreeDBPlugin 1.0
#
DISCID=02121911
DTITLE=Sadie Jones - Kleine Kriege
DYEAR=2010
DGENRE=Hörbuch
TTITLE0=Die Anhörung
TTITLE1=Die Anhörung
TTITLE2=Im Interesse des Regimes
TTITLE3=Im Interesse des Regimes
TTITLE4=Im Interesse des Regimes
TTITLE5=Eine wundervolle Neuigkeit
TTITLE6=Ein ersticktes Geräusch
TTITLE7=Ein ersticktes Geräusch
TTITLE8="Wir werden gehen."
TTITLE9="Wir werden gehen."
TTITLE10=Ein Hotel in Nikosia
TTITLE11=Alles wird gut
TTITLE12=Schüsse
TTITLE13=Schüsse
TTITLE14=Schüsse
TTITLE15="Wo ist meine Frau?"
TTITLE16="Wo ist meine Frau?"
EXTD=YEAR: 2010
EXTT0=
EXTT1=
EXTT2=
EXTT3=
EXTT4=
EXTT5=
EXTT6=
EXTT7=
EXTT8=
EXTT9=
EXTT10=
EXTT11=
EXTT12=
EXTT13=
EXTT14=
EXTT15=
EXTT16=
PLAYORDER=
